<svg xmlns="http://www.w3.org/2000/svg" width="21" height="21" viewBox="0 0 21 21">
  <defs>
    <style>
      .cls-1 {
        fill: #fff;
        fill-rule: evenodd;
      }
    </style>
  </defs>
  <path id="Forma_1" data-name="Forma 1" class="cls-1" d="M924.118,1568.61h-1.071a6.341,6.341,0,0,0-6.332-6.34v-1.07A7.413,7.413,0,0,1,924.118,1568.61Zm-7.4-5.56v1.07a4.489,4.489,0,0,1,4.486,4.49h1.07A5.561,5.561,0,0,0,916.714,1563.05ZM916.5,1558a10.5,10.5,0,0,0,0,20.99,0.645,0.645,0,1,0,0-1.29,9.2,9.2,0,1,1,9.2-9.2,5.96,5.96,0,0,1-2.743,5.11,4.033,4.033,0,0,1-1.9.49,2.966,2.966,0,0,0,1.022-.99,0.98,0.98,0,0,0,.153-0.23,10.373,10.373,0,0,0,.357-1.61c0.156-.69-2.993-2.02-3.266-1.17a8.077,8.077,0,0,1-.45,1.58,0.671,0.671,0,0,1-.884-0.11c-0.718-.61-1.52-1.51-2.223-2.22h0c-0.018-.02-0.04-0.04-0.059-0.06l-0.06-.06h0c-0.711-.7-1.61-1.5-2.221-2.22a0.659,0.659,0,0,1-.108-0.88,8.137,8.137,0,0,1,1.579-.45c0.852-.28-0.482-3.43-1.167-3.27a10.9,10.9,0,0,0-1.616.36,1.2,1.2,0,0,0-.231.15c-1.8,1.14-2.03,3.91-.275,5.97,0.669,0.79,1.367,1.55,2.085,2.3h0l0.061,0.06c0.02,0.02.038,0.04,0.057,0.06l0-.01a19.742,19.742,0,0,0,3.064,2.74c3.021,2.02,5.34,1.45,6.706.7a7.229,7.229,0,0,0,3.412-6.24A10.508,10.508,0,0,0,916.5,1558Z" transform="translate(-906 -1558)"/>
</svg>
